<svg id="Capa_1" enable-background="new 0 0 511.994 511.994" height="512" viewBox="0 0 511.994 511.994" width="512" xmlns="http://www.w3.org/2000/svg"><g><g><path clip-rule="evenodd" d="m241.93 17.051c19.333-8.834 39.85-14.237 60.631-16.208l61.114 41.067 66.449-6.912c8.425 6.014 16.467 12.802 24.027 20.365 7.552 7.552 26.381 32.385 20.338 23.997-1.448-2.01.006 63.883.006 63.883l34.159 63.668c-1.969 20.778-7.369 41.292-16.199 60.624l-62.703 27.269-30.661 66.107c-19.333 8.834-39.85 14.237-60.63 16.208l-61.121-37.837-66.442 3.681c-8.425-6.014-16.467-12.802-24.028-20.365-7.552-7.552-14.332-15.584-20.338-23.997l-2.28-73.357-31.885-54.193c1.969-20.778 7.369-41.292 16.199-60.624l70.852-31.072z" fill="#f8f2f0" fill-rule="evenodd"/></g><g><path clip-rule="evenodd" d="m241.16 101.737 8.193-30.576 8.193-30.606c1.391-5.132.866-7.049-2.875-10.79l-12.738-12.706c-19.942 9.089-38.647 21.857-55.064 38.304-16.417 16.416-29.186 35.089-38.307 55.061l12.707 12.706c3.772 3.772 5.689 4.266 10.821 2.906l30.577-8.193 30.577-8.193c2.566-.711 4.205-1.391 5.38-2.566 1.145-1.142 1.856-2.781 2.536-5.347z" fill="#7ca2b1" fill-rule="evenodd"/></g><g><path clip-rule="evenodd" d="m205.265 214.054-22.384-22.383-22.384-22.383c-3.772-3.741-5.689-4.266-10.821-2.875l-17.314 4.637c-4.205 44.271 7.173 89.748 34.164 127.558l17.345-4.668c5.132-1.36 6.524-2.782 7.915-7.914l8.193-30.576 8.193-30.576c.68-2.566.897-4.328.464-5.905-.403-1.607-1.485-3.029-3.371-4.915z" fill="#7ca2b1" fill-rule="evenodd"/></g><g><path clip-rule="evenodd" d="m384.277 206.078 8.193-30.576c.711-2.566.928-4.328.495-5.936-.433-1.577-1.515-2.999-3.37-4.885l-22.384-22.383-22.415-22.383c-1.855-1.886-3.277-2.968-4.885-3.37-1.577-.433-3.339-.216-5.905.464l-30.577 8.193-30.577 8.193c-2.566.68-4.205 1.391-5.38 2.566-1.175 1.144-1.855 2.782-2.535 5.348l-8.193 30.576-8.193 30.576c-.711 2.597-.928 4.328-.495 5.936.433 1.577 1.484 2.999 3.37 4.885l22.384 22.383 22.415 22.383c1.855 1.886 3.277 2.968 4.885 3.37 1.577.433 3.339.216 5.905-.464l30.577-8.193 30.577-8.193c2.566-.68 4.205-1.391 5.38-2.566 1.175-1.144 1.855-2.782 2.535-5.348z" fill="#7ca2b1" fill-rule="evenodd"/></g><g><path clip-rule="evenodd" d="m425.49 52.334 4.638-17.344c-37.781-26.958-83.261-38.335-127.566-34.13l-4.638 17.313c-1.391 5.132-.866 7.049 2.906 10.79l22.384 22.414 22.384 22.383c1.886 1.886 3.308 2.937 4.885 3.37s3.339.216 5.905-.495l30.608-8.193 30.577-8.193c5.135-1.361 6.526-2.783 7.917-7.915z" fill="#7ca2b1" fill-rule="evenodd"/></g><g><path clip-rule="evenodd" d="m454.151 322.599c16.417-16.416 29.186-35.089 38.307-55.061l-12.707-12.706c-3.772-3.772-5.689-4.266-10.821-2.906l-30.577 8.193-30.577 8.193c-2.566.711-4.205 1.391-5.38 2.566-1.144 1.144-1.855 2.782-2.535 5.348l-8.193 30.576-8.193 30.607c-1.391 5.132-.866 7.049 2.875 10.79l12.738 12.706c19.941-9.091 38.646-21.859 55.063-38.306z" fill="#7ca2b1" fill-rule="evenodd"/></g><g><path clip-rule="evenodd" d="m317.805 326.587-22.384-22.383c-1.886-1.886-3.308-2.937-4.885-3.37s-3.339-.216-5.905.495l-30.608 8.193-30.577 8.193c-5.132 1.36-6.524 2.782-7.915 7.914l-4.638 17.344c37.781 26.958 83.261 38.335 127.566 34.131l4.638-17.313c1.36-5.132.866-7.049-2.906-10.79z" fill="#7ca2b1" fill-rule="evenodd"/></g><g><path clip-rule="evenodd" d="m430.128 34.991c-36.019-25.691-79.025-37.254-121.351-34.626 38.74 7.42 75.717 26.093 105.707 56.081 1.206 1.206 2.412 2.442 3.586 3.679 4.73-1.329 6.091-2.813 7.42-7.791z" fill="#668d97" fill-rule="evenodd"/></g><g><path clip-rule="evenodd" d="m454.151 55.364c-7.575-7.574-15.613-14.345-24.023-20.373l-4.638 17.344c-1.329 4.977-2.69 6.461-7.42 7.791 11.501 12.088 21.24 25.227 29.217 39.139l1.948-7.327c1.391-5.132 2.783-6.554 7.915-7.914l17.345-4.668c-5.998-8.411-12.8-16.449-20.344-23.992z" fill="#eee1dc" fill-rule="evenodd"/></g><g><path clip-rule="evenodd" d="m492.458 267.538c8.842-19.322 14.222-39.85 16.201-60.626l-17.314 4.668c-5.163 1.36-7.049.835-10.821-2.906l-6.338-6.338c-.124 16.818-2.319 33.605-6.585 49.96l1.329-.371c5.132-1.36 7.049-.866 10.821 2.906z" fill="#eee1dc" fill-rule="evenodd"/></g><g><path clip-rule="evenodd" d="m492.458 267.538-12.707-12.706c-3.772-3.772-5.689-4.266-10.821-2.906l-1.329.371c-8.842 33.914-26.558 65.974-53.116 92.53-5.318 5.317-10.852 10.295-16.603 14.901l1.206 1.175c19.942-9.089 38.647-21.857 55.064-38.304 16.416-16.417 29.185-35.09 38.306-55.061z" fill="#668d97" fill-rule="evenodd"/></g><g><path clip-rule="evenodd" d="m508.937 174.327c-2.597-33.482-14.067-66.407-34.442-94.973l-17.345 4.668c-5.132 1.36-6.524 2.782-7.915 7.914l-8.193 30.576-8.193 30.576c-.68 2.566-.897 4.328-.464 5.936.402 1.577 1.484 2.999 3.37 4.885l22.384 22.383 22.384 22.383c3.772 3.741 5.658 4.266 10.821 2.906l17.314-4.668c.093-1.082.186-2.195.278-3.277.743-9.77.743-19.539.001-29.309z" fill="#7ca2b1" fill-rule="evenodd"/></g><g><path clip-rule="evenodd" d="m508.937 174.327c-2.597-33.482-14.067-66.407-34.442-94.973l-17.345 4.668c-5.132 1.36-6.524 2.782-7.915 7.914l-1.948 7.327c18.241 31.812 27.207 67.458 26.898 103.073l6.338 6.338c3.772 3.741 5.658 4.266 10.821 2.906l17.314-4.668c.093-1.082.186-2.195.278-3.277.743-9.769.743-19.538.001-29.308z" fill="#668d97" fill-rule="evenodd"/></g><g><path d="m14.411 346.472c-1.947 0-3.895-.742-5.381-2.227-2.974-2.971-2.976-7.791-.004-10.764l42.512-42.54c2.972-2.974 7.792-2.975 10.766-.005 2.974 2.971 2.976 7.791.004 10.764l-42.512 42.54c-1.487 1.487-3.436 2.232-5.385 2.232zm63.814-63.841c-1.948 0-3.896-.743-5.382-2.229-2.973-2.972-2.974-7.792-.001-10.764l16.324-16.324c2.973-2.973 7.793-2.972 10.766-.001 2.973 2.972 2.974 7.792.001 10.764l-16.324 16.324c-1.487 1.487-3.436 2.23-5.384 2.23z" fill="#7ca2b1"/></g><g><path d="m23.717 408.149c-1.948 0-3.896-.743-5.383-2.229-2.973-2.972-2.973-7.792 0-10.764l28.228-28.226c2.973-2.973 7.793-2.972 10.766-.001 2.973 2.972 2.973 7.792 0 10.764l-28.228 28.226c-1.486 1.486-3.435 2.23-5.383 2.23zm49.53-49.528c-1.948 0-3.896-.743-5.383-2.229-2.973-2.972-2.973-7.792 0-10.764l30.608-30.607c2.973-2.973 7.793-2.972 10.766-.001 2.973 2.972 2.973 7.792 0 10.764l-30.608 30.607c-1.486 1.487-3.435 2.23-5.383 2.23z" fill="#7ca2b1"/></g><g><path d="m40.134 476.966c-1.947 0-3.894-.742-5.38-2.226-2.975-2.971-2.977-7.791-.006-10.765l29.928-29.957c2.97-2.973 7.791-2.975 10.766-.006 2.975 2.971 2.977 7.791.006 10.765l-29.928 29.957c-1.486 1.488-3.436 2.232-5.386 2.232zm58.342-58.337c-1.946 0-3.893-.741-5.379-2.225-2.975-2.97-2.979-7.79-.008-10.764l21.797-21.827c2.969-2.977 7.79-2.98 10.766-.009 2.975 2.97 2.979 7.79.008 10.764l-21.797 21.827c-1.487 1.49-3.437 2.234-5.387 2.234z" fill="#7ca2b1"/></g><g><path d="m170.637 502.689c-1.948 0-3.895-.742-5.382-2.228-2.973-2.972-2.975-7.791-.002-10.764l80.139-80.165c2.973-2.975 7.792-2.975 10.766-.003 2.973 2.972 2.975 7.791.003 10.764l-80.139 80.165c-1.487 1.487-3.436 2.231-5.385 2.231z" fill="#7ca2b1"/></g><g><path d="m108.926 493.352c-1.948 0-3.896-.743-5.383-2.229-2.973-2.972-2.973-7.792 0-10.764l25.569-25.567c2.974-2.973 7.793-2.972 10.766-.001 2.973 2.972 2.973 7.792 0 10.764l-25.569 25.567c-1.487 1.487-3.435 2.23-5.383 2.23zm53.982-53.948c-1.948 0-3.896-.743-5.383-2.229-2.973-2.972-2.973-7.792-.001-10.764l26.187-26.185c2.974-2.973 7.793-2.972 10.766-.001 2.973 2.972 2.973 7.792.001 10.764l-26.187 26.185c-1.487 1.487-3.435 2.23-5.383 2.23z" fill="#7ca2b1"/></g><g><path d="m10.114 279.756c-1.948 0-3.895-.742-5.382-2.228-2.973-2.972-2.975-7.791-.002-10.764l80.137-80.164c2.972-2.975 7.792-2.976 10.766-.003 2.973 2.972 2.975 7.791.002 10.764l-80.138 80.165c-1.485 1.487-3.435 2.23-5.383 2.23z" fill="#7ca2b1"/></g><g><path d="m232.349 511.994c-1.948 0-3.896-.743-5.383-2.229-2.973-2.972-2.973-7.792 0-10.764l33.36-33.358c2.973-2.973 7.793-2.972 10.766-.001 2.973 2.972 2.973 7.792.001 10.764l-33.36 33.358c-1.487 1.487-3.436 2.23-5.384 2.23zm61.773-61.769c-1.948 0-3.896-.743-5.382-2.229-2.973-2.972-2.974-7.792-.001-10.764l18.365-18.365c2.973-2.973 7.793-2.972 10.766-.001 2.973 2.972 2.974 7.792.001 10.764l-18.365 18.365c-1.487 1.487-3.436 2.23-5.384 2.23z" fill="#7ca2b1"/></g></g></svg>